<svg xmlns="http://www.w3.org/2000/svg" xmlns:xlink="http://www.w3.org/1999/xlink" viewBox="0 0 47.2 36.1"><defs><radialGradient id="a" cx="23.02" cy="23.26" r="26.25" gradientTransform="matrix(0.99, -0.11, 0.08, 0.76, -2.14, 2.43)" gradientUnits="userSpaceOnUse"><stop offset="0.72" stop-color="#333a3a"/><stop offset="0.86" stop-color="#3a4040" stop-opacity="0.97"/><stop offset="0.91" stop-color="#515757" stop-opacity="0.85"/><stop offset="0.95" stop-color="#7b8080" stop-opacity="0.65"/><stop offset="0.98" stop-color="#b6b8b8" stop-opacity="0.36"/><stop offset="1" stop-color="#fff" stop-opacity="0"/></radialGradient><radialGradient id="b" cx="23.09" cy="23.62" r="13.22" gradientTransform="translate(-3.1 -5.5) scale(1.1 1)" gradientUnits="userSpaceOnUse"><stop offset="0.47"/><stop offset="1" stop-opacity="0"/></radialGradient></defs><ellipse cx="23.6" cy="18.1" rx="23.6" ry="18.1" style="fill:#333a3a"/><ellipse cx="23.6" cy="18.1" rx="23.2" ry="17.8" style="fill:url(#a)"/><ellipse cx="22.4" cy="18.1" rx="14.6" ry="13.2" style="opacity:0.41000000000000003;fill:url(#b)"/><path d="M18.2,24.5a12.1,12.1,0,0,1,.5-1.8,6.4,6.4,0,0,1,2.1-2.5,12.7,12.7,0,0,1,3.3-2.4A22,22,0,0,1,36.7,15a12.3,12.3,0,0,0-3.3-3.5,35,35,0,0,0-8,2.9,17.2,17.2,0,0,0-6.3,5.7,20.8,20.8,0,0,1,8.8-8.8l3-1.4A15.4,15.4,0,1,0,25,39a116.2,116.2,0,0,1-6.2-11A5.4,5.4,0,0,1,18.2,24.5Z" transform="translate(-0.4 -5.5)" style="fill:#ffe529"/><path d="M24.6,19.1a5.9,5.9,0,0,1,5.1,3.4,6,6,0,0,1-2.6,8.2l-.5.2h0c-2.3.9-1.4,4-.7,5.3l1.3,2.4A13.2,13.2,0,0,0,31,37.3a15.2,15.2,0,0,0,8.2-16C35,16.6,29.7,17.1,24.6,19.1Z" transform="translate(-0.4 -5.5)" style="fill:#ffe529"/></svg>
